<?xml version="1.0" encoding="utf-8"?>
<!-- Generator: Adobe Illustrator 27.6.1, SVG Export Plug-In . SVG Version: 6.00 Build 0)  -->
<svg version="1.1" id="Layer_1" xmlns="http://www.w3.org/2000/svg" xmlns:xlink="http://www.w3.org/1999/xlink" x="0px" y="0px"
	 viewBox="0 0 697.5 164.8" style="enable-background:new 0 0 697.5 164.8;" xml:space="preserve">
<style type="text/css">
	.st0{fill:#034694;}
	.st1{fill:url(#SVGID_1_);}
</style>
<g>
	<g>
		<g>
			<g>
				<path class="st0" d="M503.4,70.7c0-0.3-0.1-0.7-0.2-1c-0.1-0.3-0.3-0.7-0.6-0.9c-0.3-0.3-0.6-0.5-1.1-0.7
					c-0.4-0.2-0.9-0.3-1.5-0.3c-0.7,0-1.3,0.1-1.8,0.4c-0.5,0.3-1,0.6-1.3,1.1c-0.4,0.4-0.6,0.9-0.8,1.5c-0.2,0.5-0.3,1.1-0.3,1.6
					h5.8c0.7,0,1.1-0.1,1.4-0.4C503.2,71.8,503.4,71.3,503.4,70.7z M506.1,71c0,1.1-0.3,1.9-0.9,2.5c-0.6,0.6-1.6,0.9-3,0.9h-6.4
					c0.2,1.2,0.6,2,1.4,2.7c0.8,0.6,1.9,0.9,3.2,0.9c1,0,1.9-0.1,2.6-0.3c0.7-0.2,1.1-0.4,1.4-0.5l0.9,2.1c-0.1,0.1-0.3,0.2-0.6,0.3
					c-0.3,0.1-0.6,0.3-1.1,0.4c-0.4,0.1-1,0.2-1.6,0.3c-0.6,0.1-1.2,0.1-1.9,0.1c-1,0-2-0.1-2.9-0.4c-0.9-0.3-1.7-0.7-2.3-1.3
					c-0.7-0.6-1.2-1.3-1.5-2.2c-0.4-0.9-0.6-1.9-0.6-3.1c0-1.1,0.2-2.1,0.5-3.1c0.4-0.9,0.9-1.7,1.5-2.4c0.6-0.7,1.4-1.2,2.3-1.5
					c0.9-0.4,1.8-0.5,2.9-0.5c1,0,1.9,0.1,2.6,0.4c0.8,0.3,1.4,0.6,1.9,1.1c0.5,0.5,0.9,1,1.2,1.7C506,69.5,506.1,70.2,506.1,71z"/>
				<path class="st0" d="M518.3,79.9v-7.7c0-1.3-0.3-2.3-1-3c-0.6-0.7-1.6-1-3-1c-0.9,0-1.7,0.1-2.2,0.3c-0.5,0.2-0.9,0.3-1,0.4
					v11.2h-2.8v-13c0.1,0,0.3-0.1,0.6-0.2c0.3-0.1,0.8-0.3,1.3-0.4c0.5-0.1,1.2-0.3,1.9-0.4c0.7-0.1,1.5-0.2,2.4-0.2
					c1,0,1.9,0.1,2.7,0.4c0.8,0.3,1.5,0.6,2.1,1.1c0.6,0.5,1,1.1,1.3,1.8c0.3,0.7,0.5,1.5,0.5,2.4v8.5H518.3z"/>
				<path class="st0" d="M534,70.7c0-0.3-0.1-0.7-0.2-1c-0.1-0.3-0.3-0.7-0.6-0.9c-0.3-0.3-0.6-0.5-1.1-0.7
					c-0.4-0.2-0.9-0.3-1.5-0.3c-0.7,0-1.3,0.1-1.8,0.4c-0.5,0.3-1,0.6-1.3,1.1c-0.4,0.4-0.6,0.9-0.8,1.5c-0.2,0.5-0.3,1.1-0.3,1.6
					h5.8c0.7,0,1.1-0.1,1.4-0.4C533.8,71.8,534,71.3,534,70.7z M536.7,71c0,1.1-0.3,1.9-0.9,2.5c-0.6,0.6-1.6,0.9-3,0.9h-6.4
					c0.2,1.2,0.6,2,1.4,2.7c0.8,0.6,1.9,0.9,3.2,0.9c1,0,1.9-0.1,2.6-0.3c0.7-0.2,1.1-0.4,1.4-0.5l0.9,2.1c-0.1,0.1-0.3,0.2-0.6,0.3
					c-0.3,0.1-0.6,0.3-1.1,0.4s-1,0.2-1.6,0.3c-0.6,0.1-1.2,0.1-1.9,0.1c-1,0-2-0.1-2.9-0.4c-0.9-0.3-1.7-0.7-2.3-1.3
					c-0.7-0.6-1.2-1.3-1.5-2.2c-0.4-0.9-0.6-1.9-0.6-3.1c0-1.1,0.2-2.1,0.5-3.1c0.4-0.9,0.9-1.7,1.5-2.4c0.6-0.7,1.4-1.2,2.3-1.5
					c0.9-0.4,1.8-0.5,2.9-0.5c1,0,1.9,0.1,2.6,0.4c0.8,0.3,1.4,0.6,1.9,1.1c0.5,0.5,0.9,1,1.2,1.7C536.5,69.5,536.7,70.2,536.7,71z"
					/>
				<path class="st0" d="M544.7,68.1c-0.5,0-0.9,0-1.2,0.1c-0.3,0.1-0.6,0.1-0.9,0.2c-0.2,0.1-0.4,0.2-0.6,0.2
					c-0.1,0.1-0.2,0.1-0.3,0.2v11.1h-2.8V67.4c0.1-0.1,0.2-0.2,0.5-0.3c0.3-0.2,0.7-0.4,1.2-0.5c0.5-0.2,1.1-0.4,1.7-0.5
					c0.7-0.2,1.4-0.2,2.2-0.2c0.7,0,1.3,0,1.8,0.1s0.8,0.2,1.1,0.4c0.5,0.3,0.8,0.6,0.8,1.1c0,0.3-0.1,0.6-0.2,0.9
					c-0.1,0.2-0.3,0.4-0.4,0.5c-0.2-0.1-0.5-0.3-1.1-0.4S545.3,68.1,544.7,68.1z"/>
				<path class="st0" d="M558.7,72.3c0-1.3-0.4-2.4-1.1-3.2c-0.7-0.8-1.7-1.2-2.9-1.2c-1.2,0-2.2,0.4-2.9,1.2
					c-0.7,0.8-1.1,1.9-1.1,3.2c0,1.3,0.4,2.4,1.1,3.2c0.7,0.8,1.7,1.2,2.9,1.2c1.2,0,2.1-0.4,2.9-1.2
					C558.3,74.7,558.7,73.6,558.7,72.3z M561.5,72.4c0,1-0.2,2-0.6,2.8c-0.4,0.8-0.9,1.5-1.6,2.1c0.5,0.3,0.9,0.6,1.2,0.9
					c0.3,0.3,0.5,0.6,0.7,1c0.2,0.3,0.3,0.6,0.3,0.9c0.1,0.3,0.1,0.6,0.1,0.8c0,0.7-0.2,1.4-0.5,2c-0.3,0.6-0.8,1.1-1.4,1.5
					c-0.6,0.4-1.3,0.7-2.1,1c-0.8,0.2-1.7,0.3-2.7,0.3c-1,0-2-0.1-2.8-0.2c-0.8-0.2-1.5-0.3-2-0.5c-0.5-0.2-1-0.4-1.3-0.6
					c-0.3-0.2-0.5-0.3-0.5-0.4l1.2-2.1c0.1,0.1,0.3,0.2,0.5,0.4c0.3,0.2,0.6,0.3,1,0.5c0.4,0.2,0.9,0.3,1.5,0.5
					c0.6,0.1,1.2,0.2,2,0.2c0.5,0,1.1-0.1,1.5-0.2c0.5-0.1,0.9-0.3,1.2-0.5c0.3-0.2,0.6-0.5,0.8-0.8c0.2-0.3,0.3-0.7,0.3-1.2
					c0-0.3-0.1-0.7-0.3-1.2c-0.2-0.4-0.6-0.8-1.2-1c-0.3,0.1-0.7,0.2-1.1,0.3c-0.4,0.1-0.8,0.1-1.2,0.1c-1,0-1.9-0.2-2.7-0.5
					c-0.8-0.3-1.5-0.8-2.2-1.4c-0.6-0.6-1.1-1.3-1.4-2.1c-0.3-0.8-0.5-1.7-0.5-2.7c0-1,0.2-1.9,0.5-2.7c0.3-0.8,0.8-1.5,1.4-2.1
					c0.6-0.6,1.3-1,2.2-1.4c0.8-0.3,1.7-0.5,2.7-0.5c0.4,0,0.9,0,1.3,0.1c0.4,0.1,0.8,0.2,1.2,0.3h4.3c0.5,0,0.8,0.1,1,0.3
					c0.2,0.2,0.3,0.5,0.3,0.9c0,0.3,0,0.5-0.1,0.7s-0.2,0.3-0.2,0.4h-2.5c0.6,0.5,1,1.2,1.2,1.9C561.4,71.1,561.5,71.8,561.5,72.4z"
					/>
				<path class="st0" d="M564.7,67.4c0-0.5,0.1-0.8,0.4-1c0.3-0.2,0.6-0.3,1.1-0.3c0.3,0,0.6,0,0.8,0.1c0.2,0.1,0.4,0.1,0.5,0.1
					v13.5h-2.9V67.4z M567.8,61.4c0,0.5-0.2,0.9-0.5,1.2c-0.3,0.3-0.8,0.5-1.3,0.5c-0.5,0-0.9-0.2-1.2-0.5c-0.3-0.3-0.5-0.7-0.5-1.2
					c0-0.5,0.2-0.9,0.5-1.2c0.3-0.3,0.8-0.5,1.2-0.5c0.5,0,0.9,0.2,1.3,0.5C567.7,60.5,567.8,60.9,567.8,61.4z"/>
				<path class="st0" d="M579.7,73.5c-0.1,0-0.2,0-0.4-0.1c-0.2,0-0.5,0-0.8-0.1c-0.3,0-0.6,0-1-0.1c-0.4,0-0.7,0-1,0
					c-1.4,0-2.4,0.2-2.9,0.6c-0.6,0.4-0.9,1.1-0.9,1.9c0,0.4,0.1,0.7,0.2,1c0.1,0.3,0.3,0.6,0.6,0.8c0.3,0.2,0.7,0.4,1.2,0.5
					c0.5,0.1,1.1,0.2,1.9,0.2c0.9,0,1.7,0,2.2-0.1c0.5-0.1,0.9-0.1,1.1-0.2V73.5z M575.6,67.9c-0.5,0-1,0-1.4,0.1
					c-0.4,0.1-0.8,0.2-1.1,0.3s-0.6,0.2-0.8,0.4c-0.2,0.1-0.4,0.3-0.5,0.3c-0.2-0.1-0.4-0.3-0.5-0.5c-0.1-0.2-0.2-0.5-0.2-0.8
					c0-0.3,0.1-0.6,0.3-0.8c0.2-0.2,0.4-0.4,0.7-0.5c0.3-0.1,0.7-0.3,1.3-0.4c0.5-0.1,1.2-0.2,2.1-0.2c1.1,0,2.1,0.1,3,0.3
					c0.9,0.2,1.6,0.5,2.2,1c0.6,0.5,1.1,1.1,1.4,1.8c0.3,0.8,0.5,1.7,0.5,2.7v8.2c-0.3,0.1-1,0.2-2.1,0.3c-1.1,0.1-2.4,0.2-4.1,0.2
					c-1.4,0-2.5-0.1-3.3-0.4c-0.8-0.2-1.5-0.6-2-1c-0.5-0.4-0.8-0.9-1-1.4c-0.2-0.5-0.2-1.1-0.2-1.6c0-0.7,0.1-1.4,0.3-1.9
					c0.2-0.6,0.6-1,1.1-1.4c0.5-0.4,1.1-0.7,2-0.9c0.8-0.2,1.8-0.3,3-0.3c0.8,0,1.6,0,2.2,0.1c0.7,0,1.1,0.1,1.3,0.1v-0.1
					c0-0.3,0-0.6-0.1-0.8c-0.1-0.9-0.5-1.5-1.2-2C577.8,68.1,576.9,67.9,575.6,67.9z"/>
				<path class="st0" d="M490.4,93.7c1.2,0,2.2,0.2,3.1,0.6c0.9,0.4,1.7,1.1,2.2,1.9c0.5-0.8,1.1-1.4,2-1.9c0.8-0.5,1.8-0.7,3-0.7
					c0.8,0,1.5,0.1,2.2,0.3c0.7,0.2,1.3,0.5,1.8,1c0.5,0.4,0.9,1,1.2,1.6c0.3,0.6,0.4,1.4,0.4,2.3v9h-2.9v-8c0-1.3-0.3-2.3-0.9-2.9
					c-0.6-0.6-1.4-0.9-2.4-0.9c-1,0-1.9,0.3-2.5,1c-0.6,0.7-1,1.7-1,3.1v7.7H494v-7.8c0-1.4-0.3-2.4-1-3.1c-0.6-0.6-1.5-1-2.7-1
					c-0.9,0-1.6,0.1-2.1,0.2c-0.5,0.2-0.8,0.3-0.9,0.4v11.2h-2.8V95c0.1,0,0.3-0.1,0.6-0.2c0.3-0.1,0.7-0.3,1.2-0.4
					c0.5-0.1,1.1-0.3,1.8-0.4C488.7,93.8,489.5,93.7,490.4,93.7z"/>
				<path class="st0" d="M519.8,95.9c-1.2,0-2,0.2-2.5,0.5c-0.5,0.3-0.7,0.8-0.7,1.4c0,0.5,0.2,0.9,0.6,1.1s1.1,0.4,1.9,0.6l2.4,0.3
					c1.8,0.3,3,0.7,3.7,1.4c0.7,0.7,1.1,1.5,1.1,2.6c0,1.3-0.5,2.4-1.5,3.2c-1,0.8-2.6,1.2-4.7,1.2c-1,0-1.8-0.1-2.6-0.2
					s-1.4-0.3-2-0.5c-0.5-0.2-1-0.4-1.3-0.6c-0.3-0.2-0.5-0.3-0.6-0.4l1.1-2c0.1,0.1,0.3,0.2,0.5,0.3c0.3,0.2,0.7,0.3,1.1,0.5
					c0.5,0.2,1,0.3,1.6,0.5c0.6,0.1,1.3,0.2,2.1,0.2c1,0,1.8-0.1,2.4-0.4c0.6-0.3,0.9-0.8,0.9-1.4c0-0.5-0.2-0.9-0.6-1.2
					c-0.4-0.3-1.2-0.5-2.2-0.6l-1.9-0.3c-1.5-0.2-2.7-0.6-3.6-1.3c-0.8-0.6-1.3-1.6-1.3-2.8c0-0.6,0.1-1.1,0.3-1.6
					c0.2-0.5,0.5-1,1-1.4c0.5-0.4,1.1-0.7,1.8-0.9c0.8-0.2,1.7-0.4,2.8-0.4c1.3,0,2.3,0.1,3,0.3c0.7,0.2,1.3,0.4,1.7,0.6
					c0.8,0.4,1.1,0.9,1.1,1.4c0,0.4-0.1,0.7-0.3,0.9c-0.2,0.2-0.4,0.4-0.6,0.5c0,0-0.2-0.1-0.4-0.3c-0.2-0.2-0.5-0.4-0.9-0.5
					c-0.4-0.2-0.9-0.3-1.5-0.5C521.2,96,520.5,95.9,519.8,95.9z"/>
				<path class="st0" d="M538.1,98.7c0-0.3-0.1-0.7-0.2-1c-0.1-0.3-0.3-0.7-0.6-0.9c-0.3-0.3-0.6-0.5-1.1-0.7
					c-0.4-0.2-0.9-0.3-1.5-0.3c-0.7,0-1.3,0.1-1.8,0.4c-0.5,0.3-1,0.6-1.3,1.1c-0.4,0.4-0.6,0.9-0.8,1.5c-0.2,0.5-0.3,1.1-0.3,1.6
					h5.8c0.7,0,1.1-0.1,1.4-0.4C538,99.8,538.1,99.4,538.1,98.7z M540.8,99c0,1.1-0.3,1.9-0.9,2.5c-0.6,0.6-1.6,0.9-3,0.9h-6.4
					c0.2,1.2,0.6,2,1.4,2.7c0.8,0.6,1.9,0.9,3.2,0.9c1,0,1.9-0.1,2.6-0.3c0.7-0.2,1.1-0.4,1.4-0.5l0.9,2.1c-0.1,0.1-0.3,0.2-0.6,0.3
					c-0.3,0.1-0.6,0.3-1.1,0.4c-0.4,0.1-1,0.2-1.6,0.3c-0.6,0.1-1.2,0.2-1.9,0.2c-1,0-2-0.1-2.9-0.4c-0.9-0.3-1.7-0.7-2.3-1.3
					c-0.7-0.6-1.2-1.3-1.5-2.2c-0.4-0.9-0.6-1.9-0.6-3.1c0-1.1,0.2-2.1,0.5-3.1s0.9-1.7,1.5-2.4c0.6-0.7,1.4-1.2,2.3-1.5
					c0.9-0.4,1.8-0.5,2.9-0.5c1,0,1.9,0.1,2.6,0.4c0.8,0.3,1.4,0.6,1.9,1.1c0.5,0.5,0.9,1,1.2,1.7C540.7,97.5,540.8,98.2,540.8,99z"
					/>
				<path class="st0" d="M552.8,95.5c0-0.4,0.1-0.8,0.4-1c0.3-0.2,0.6-0.3,1.1-0.3c0.3,0,0.6,0,0.8,0.1c0.2,0.1,0.4,0.1,0.5,0.2
					v13.5c-0.1,0-0.4,0.1-0.7,0.1c-0.3,0-0.7,0.1-1.2,0.1c-0.5,0-1,0.1-1.5,0.1c-0.5,0-1.1,0-1.7,0c-1.7,0-3-0.2-4-0.6
					c-1-0.4-1.9-1-2.5-1.8c-0.8-1-1.1-2.3-1.1-3.9v-6.6c0-0.4,0.1-0.8,0.4-1c0.3-0.2,0.6-0.3,1.1-0.3c0.3,0,0.6,0,0.8,0.1
					c0.2,0.1,0.4,0.1,0.5,0.2v7.3c0,1.4,0.4,2.4,1.1,3.1c0.7,0.7,1.9,1,3.6,1c0.6,0,1.2,0,1.5-0.1c0.4,0,0.7-0.1,0.8-0.1V95.5z"/>
				<path class="st0" d="M574.5,101.1c0-0.7-0.1-1.4-0.3-2c-0.2-0.6-0.5-1.2-0.9-1.6c-0.4-0.4-0.9-0.8-1.5-1.1
					c-0.6-0.3-1.3-0.4-2.2-0.4c-0.9,0-1.6,0.1-2.1,0.2c-0.5,0.2-0.8,0.3-0.9,0.3v6.7c0.1,0.2,0.2,0.5,0.4,0.7
					c0.2,0.3,0.4,0.5,0.7,0.8c0.3,0.2,0.7,0.5,1.1,0.6c0.5,0.2,1,0.3,1.7,0.3c1.3,0,2.2-0.4,2.9-1.2
					C574.1,103.8,574.5,102.6,574.5,101.1z M563.7,95c0.1,0,0.3-0.1,0.6-0.3c0.3-0.1,0.7-0.3,1.2-0.4c0.5-0.1,1.1-0.3,1.8-0.4
					c0.7-0.1,1.4-0.2,2.2-0.2c1.3,0,2.4,0.2,3.4,0.6c1,0.4,1.8,0.9,2.5,1.6c0.7,0.7,1.2,1.5,1.5,2.4c0.3,0.9,0.5,1.9,0.5,3
					c0,1.1-0.2,2.1-0.5,2.9c-0.3,0.8-0.8,1.6-1.4,2.1c-0.6,0.6-1.3,1-2,1.3c-0.8,0.3-1.6,0.4-2.5,0.4c-0.8,0-1.4-0.1-1.9-0.2
					c-0.5-0.2-1-0.3-1.3-0.5s-0.6-0.4-0.8-0.6c-0.2-0.2-0.3-0.3-0.4-0.4v7h-2.8V95z"/>
				<path class="st0" d="M590.7,101.1c0-0.7-0.1-1.4-0.3-2c-0.2-0.6-0.5-1.1-0.9-1.6c-0.4-0.4-0.8-0.8-1.4-1
					c-0.5-0.2-1.1-0.4-1.8-0.4c-0.7,0-1.3,0.1-1.9,0.4c-0.5,0.2-1,0.6-1.4,1c-0.4,0.4-0.7,1-0.9,1.6c-0.2,0.6-0.3,1.3-0.3,2
					s0.1,1.4,0.3,2c0.2,0.6,0.5,1.1,0.9,1.6c0.4,0.4,0.8,0.8,1.4,1c0.5,0.2,1.2,0.4,1.9,0.4c0.7,0,1.3-0.1,1.8-0.4
					c0.5-0.2,1-0.6,1.4-1c0.4-0.4,0.7-1,0.9-1.6C590.6,102.5,590.7,101.8,590.7,101.1z M593.6,101.1c0,1-0.2,2-0.5,2.9
					c-0.4,0.9-0.9,1.7-1.5,2.3c-0.6,0.6-1.4,1.2-2.3,1.5c-0.9,0.4-1.9,0.6-3,0.6c-1.1,0-2.1-0.2-3-0.6c-0.9-0.4-1.7-0.9-2.3-1.5
					c-0.6-0.6-1.1-1.4-1.5-2.3c-0.4-0.9-0.5-1.9-0.5-2.9c0-1,0.2-2,0.5-2.9c0.4-0.9,0.9-1.7,1.5-2.3c0.6-0.6,1.4-1.2,2.3-1.5
					c0.9-0.4,1.9-0.6,3-0.6c1.1,0,2.1,0.2,3,0.6c0.9,0.4,1.7,0.9,2.3,1.5c0.6,0.6,1.1,1.4,1.5,2.3C593.4,99.1,593.6,100,593.6,101.1
					z"/>
				<path class="st0" d="M598.1,101c0,0.7,0.1,1.4,0.3,2.1c0.2,0.6,0.5,1.2,0.9,1.6c0.4,0.5,1,0.8,1.6,1.1c0.7,0.2,1.5,0.4,2.4,0.4
					c0.8,0,1.4,0,1.9-0.1s0.7-0.1,0.9-0.2v-5.1c0-0.6-0.1-1.2-0.2-1.8c-0.2-0.5-0.4-1-0.7-1.4c-0.3-0.4-0.7-0.7-1.2-1
					c-0.5-0.2-1.1-0.3-1.7-0.3c-1.3,0-2.3,0.4-3,1.3C598.5,98.3,598.1,99.5,598.1,101z M608.9,107.9c-0.1,0-0.3,0-0.5,0.1
					c-0.3,0-0.6,0.1-1.1,0.1c-0.4,0-1,0.1-1.6,0.1c-0.6,0-1.3,0.1-2,0.1c-1.5,0-2.7-0.2-3.8-0.5c-1.1-0.4-2-0.9-2.7-1.5
					c-0.7-0.7-1.2-1.5-1.6-2.4c-0.3-0.9-0.5-2-0.5-3.1c0-1.1,0.2-2.1,0.5-2.9c0.3-0.9,0.8-1.6,1.3-2.2c0.6-0.6,1.2-1,2-1.4
					c0.8-0.3,1.6-0.5,2.5-0.5c0.7,0,1.4,0.1,1.9,0.3c0.5,0.2,1,0.4,1.4,0.6c0.4,0.2,0.6,0.5,0.9,0.7c0.2,0.2,0.3,0.4,0.4,0.5V89
					c0-0.9,0.5-1.3,1.5-1.3c0.3,0,0.6,0,0.8,0.1c0.2,0.1,0.4,0.1,0.5,0.2V107.9z"/>
				<path class="st0" d="M621.8,98.7c0-0.3-0.1-0.7-0.2-1c-0.1-0.3-0.3-0.7-0.6-0.9c-0.3-0.3-0.6-0.5-1.1-0.7
					c-0.4-0.2-0.9-0.3-1.5-0.3c-0.7,0-1.3,0.1-1.8,0.4c-0.5,0.3-1,0.6-1.3,1.1c-0.4,0.4-0.6,0.9-0.8,1.5c-0.2,0.5-0.3,1.1-0.3,1.6
					h5.8c0.7,0,1.1-0.1,1.4-0.4C621.6,99.8,621.8,99.4,621.8,98.7z M624.5,99c0,1.1-0.3,1.9-0.9,2.5c-0.6,0.6-1.6,0.9-3,0.9h-6.4
					c0.2,1.2,0.6,2,1.4,2.7c0.8,0.6,1.9,0.9,3.2,0.9c1,0,1.9-0.1,2.6-0.3c0.7-0.2,1.1-0.4,1.4-0.5l0.9,2.1c-0.1,0.1-0.3,0.2-0.6,0.3
					c-0.3,0.1-0.6,0.3-1.1,0.4c-0.4,0.1-1,0.2-1.6,0.3c-0.6,0.1-1.2,0.2-1.9,0.2c-1,0-2-0.1-2.9-0.4c-0.9-0.3-1.7-0.7-2.3-1.3
					c-0.7-0.6-1.2-1.3-1.5-2.2c-0.4-0.9-0.6-1.9-0.6-3.1c0-1.1,0.2-2.1,0.5-3.1c0.4-0.9,0.9-1.7,1.5-2.4c0.6-0.7,1.4-1.2,2.3-1.5
					c0.9-0.4,1.8-0.5,2.9-0.5c1,0,1.9,0.1,2.6,0.4c0.8,0.3,1.4,0.6,1.9,1.1c0.5,0.5,0.9,1,1.2,1.7C624.4,97.5,624.5,98.2,624.5,99z"
					/>
				<path class="st0" d="M632.5,96.1c-0.5,0-0.9,0-1.2,0.1c-0.3,0.1-0.6,0.1-0.9,0.2c-0.2,0.1-0.4,0.2-0.6,0.2
					c-0.1,0.1-0.2,0.1-0.3,0.2v11.1h-2.8V95.4c0.1-0.1,0.2-0.2,0.5-0.3c0.3-0.2,0.7-0.4,1.2-0.5c0.5-0.2,1.1-0.4,1.7-0.5
					c0.7-0.2,1.4-0.2,2.2-0.2c0.7,0,1.3,0,1.8,0.1c0.5,0.1,0.8,0.2,1.1,0.4c0.5,0.3,0.8,0.6,0.8,1.1c0,0.3-0.1,0.6-0.2,0.9
					c-0.1,0.2-0.3,0.4-0.4,0.5c-0.2-0.1-0.5-0.3-1.1-0.4C633.7,96.2,633.1,96.1,632.5,96.1z"/>
				<path class="st0" d="M637.8,106.3c0,0.6-0.2,1.1-0.6,1.5c-0.4,0.4-0.9,0.6-1.4,0.6c-0.6,0-1.1-0.2-1.5-0.6
					c-0.4-0.4-0.6-0.9-0.6-1.5c0-0.6,0.2-1.1,0.6-1.5c0.4-0.4,0.9-0.6,1.5-0.6c0.6,0,1,0.2,1.4,0.6
					C637.6,105.3,637.8,105.7,637.8,106.3z"/>
				<path class="st0" d="M477.5,63.5c-0.2,0.4-0.4,1-0.7,1.6c-0.3,0.7-0.6,1.4-0.9,2.2c-0.3,0.8-0.7,1.6-1.1,2.5
					c-0.4,0.9-0.7,1.8-1.1,2.7h7.5c-0.3-0.9-0.7-1.8-1.1-2.7c-0.4-0.9-0.7-1.8-1.1-2.6c-0.3-0.8-0.6-1.6-0.9-2.2
					C477.9,64.3,477.7,63.8,477.5,63.5z M468,79.9c0.6-1.5,1.2-3.1,1.8-4.8c0.7-1.6,1.3-3.2,1.9-4.8s1.2-3,1.8-4.3
					c0.6-1.3,1.1-2.4,1.5-3.3c0.4-0.8,0.7-1.4,1.1-1.7c0.4-0.3,0.9-0.5,1.5-0.5c0.6,0,1,0.1,1.3,0.3c0.3,0.2,0.5,0.3,0.7,0.5
					c0.3,0.6,0.7,1.3,1.2,2.3c0.5,1,0.9,2.1,1.5,3.3c0.5,1.2,1,2.4,1.5,3.7c0.5,1.3,1,2.5,1.5,3.7c0.5,1.2,0.9,2.2,1.2,3.2
					c0.4,0.9,0.6,1.7,0.8,2.2h-3.2c-0.1-0.2-0.2-0.5-0.3-0.9c-0.1-0.4-0.3-0.8-0.5-1.2c-0.2-0.4-0.3-0.9-0.5-1.4
					c-0.2-0.5-0.4-0.9-0.5-1.4h-9.5c-0.4,1-0.8,2-1.1,2.9c-0.3,0.9-0.6,1.5-0.7,2H468z"/>
				<path class="st0" d="M479.6,98.7c0-0.3-0.1-0.7-0.2-1c-0.1-0.3-0.3-0.7-0.6-0.9c-0.3-0.3-0.6-0.5-1.1-0.7
					c-0.4-0.2-0.9-0.3-1.5-0.3c-0.7,0-1.3,0.1-1.8,0.4c-0.5,0.3-1,0.6-1.3,1.1c-0.4,0.4-0.6,0.9-0.8,1.5c-0.2,0.5-0.3,1.1-0.3,1.6
					h5.8c0.7,0,1.1-0.1,1.4-0.4C479.4,99.8,479.6,99.4,479.6,98.7z M482.3,99c0,1.1-0.3,1.9-0.9,2.5c-0.6,0.6-1.6,0.9-3,0.9H472
					c0.2,1.2,0.6,2,1.4,2.7c0.8,0.6,1.9,0.9,3.2,0.9c1,0,1.9-0.1,2.6-0.3c0.7-0.2,1.1-0.4,1.4-0.5l0.9,2.1c-0.1,0.1-0.3,0.2-0.6,0.3
					c-0.3,0.1-0.6,0.3-1.1,0.4c-0.4,0.1-1,0.2-1.6,0.3c-0.6,0.1-1.2,0.2-1.9,0.2c-1,0-2-0.1-2.9-0.4c-0.9-0.3-1.7-0.7-2.3-1.3
					c-0.7-0.6-1.2-1.3-1.5-2.2c-0.4-0.9-0.6-1.9-0.6-3.1c0-1.1,0.2-2.1,0.5-3.1c0.4-0.9,0.9-1.7,1.5-2.4c0.6-0.7,1.4-1.2,2.3-1.5
					c0.9-0.4,1.8-0.5,2.9-0.5c1,0,1.9,0.1,2.6,0.4c0.8,0.3,1.4,0.6,1.9,1.1c0.5,0.5,0.9,1,1.2,1.7C482.2,97.5,482.3,98.2,482.3,99z"
					/>
			</g>
		</g>
	</g>
	<g>
		<g>
			<linearGradient id="SVGID_1_" gradientUnits="userSpaceOnUse" x1="61.5075" y1="80.911" x2="442.9405" y2="80.911">
				<stop  offset="0" style="stop-color:#423C8E"/>
				<stop  offset="1.117318e-02" style="stop-color:#034694"/>
				<stop  offset="0.166" style="stop-color:#4C3C8E"/>
				<stop  offset="0.3039" style="stop-color:#6C4593"/>
				<stop  offset="0.332" style="stop-color:#734793"/>
				<stop  offset="0.3497" style="stop-color:#7D4A88"/>
				<stop  offset="0.4139" style="stop-color:#9D5265"/>
				<stop  offset="0.4663" style="stop-color:#B2574F"/>
				<stop  offset="0.5" style="stop-color:#B95946"/>
				<stop  offset="0.666" style="stop-color:#C75B36"/>
				<stop  offset="0.7181" style="stop-color:#C96032"/>
				<stop  offset="0.7844" style="stop-color:#CD7025"/>
				<stop  offset="0.858" style="stop-color:#D58A0F"/>
				<stop  offset="0.9" style="stop-color:#DA9C00"/>
				<stop  offset="0.9192" style="stop-color:#DDA200"/>
				<stop  offset="0.9463" style="stop-color:#E5B500"/>
				<stop  offset="0.9779" style="stop-color:#F3D300"/>
				<stop  offset="1" style="stop-color:#FFEC00"/>
			</linearGradient>
			<path class="st1" d="M432.8,91.6c-0.2-0.1-0.5-0.1-0.9-0.2s-1-0.1-1.7-0.2c-0.7-0.1-1.4-0.1-2.2-0.1c-0.8,0-1.6,0-2.5,0
				c-1.9,0-3.5,0.2-4.7,0.5c-1.2,0.3-2.1,0.7-2.8,1.3c-0.7,0.5-1.1,1.2-1.3,2c-0.2,0.8-0.4,1.6-0.4,2.4c0,0.7,0.1,1.4,0.3,2.1
				c0.2,0.7,0.6,1.3,1.3,1.8c0.7,0.5,1.6,1,2.7,1.3c1.2,0.3,2.7,0.5,4.6,0.5c2,0,3.6-0.1,4.9-0.3c1.3-0.2,2.2-0.3,2.7-0.4V91.6z
				 M443.6,108.8c-0.2,0.1-0.7,0.2-1.7,0.3c-1,0.2-2.3,0.3-4,0.5c-1.6,0.2-3.6,0.3-5.8,0.4c-2.2,0.1-4.7,0.2-7.4,0.2
				c-3.9,0-7-0.3-9.5-1c-2.5-0.7-4.5-1.6-5.9-2.7c-1.5-1.1-2.5-2.5-3-4c-0.5-1.5-0.8-3.2-0.8-5.1c0-2.2,0.3-4.2,1-5.9
				c0.7-1.7,1.8-3,3.3-4.1c1.5-1.1,3.5-1.9,5.8-2.4c2.4-0.5,5.3-0.8,8.7-0.8c2.3,0,4.3,0.1,5.9,0.2c1.6,0.1,2.5,0.2,2.7,0.3v-1.3
				c0-2.5-0.8-4.3-2.5-5.6c-1.7-1.3-4.3-2-7.8-2c-1.6,0-2.9,0.1-4.2,0.4c-1.2,0.3-2.2,0.6-3.1,1c-0.9,0.4-1.6,0.8-2.2,1.2
				c-0.6,0.4-1.1,0.7-1.4,0.9c-0.7-0.4-1.4-1.1-2-2s-0.9-1.9-0.9-3.1c0-1.1,0.4-2.1,1.1-2.9c0.7-0.8,1.7-1.5,2.9-2
				c1.2-0.5,2.6-0.8,4.2-1.1c1.6-0.2,3.2-0.3,4.9-0.3c3.2,0,6.1,0.3,8.7,0.8c2.6,0.5,4.9,1.5,6.8,2.8c1.9,1.3,3.4,3.1,4.4,5.3
				c1,2.2,1.6,5,1.6,8.3V108.8z M389.1,73.9c0-1.8,0.5-3,1.6-3.7c1-0.7,2.4-1,4.2-1c1.2,0,2.3,0.1,3.3,0.4c1,0.3,1.7,0.4,1.9,0.5v39
				h-11V73.9z M400.7,57.3c0,1.7-0.6,3.1-1.8,4.3s-2.7,1.8-4.4,1.8c-1.7,0-3.1-0.6-4.3-1.8c-1.2-1.2-1.8-2.6-1.8-4.3
				c0-1.7,0.6-3.1,1.8-4.2c1.2-1.1,2.6-1.7,4.3-1.7c1.7,0,3.2,0.6,4.4,1.7C400.1,54.3,400.7,55.7,400.7,57.3z M376.9,76.9
				c-2.2,0-3.9,0.2-5.1,0.7c-1.2,0.4-2,0.8-2.5,1.1v30.5h-11V72.6c0.2-0.2,0.8-0.5,1.7-1c0.9-0.5,2.2-1.1,3.7-1.6
				c1.5-0.5,3.3-1,5.4-1.5c2-0.4,4.3-0.7,6.7-0.7c1.5,0,2.8,0.1,4.2,0.3c1.3,0.2,2.5,0.5,3.4,0.9c1,0.4,1.8,1,2.3,1.6
				c0.6,0.7,0.9,1.5,0.9,2.5c0,1.5-0.3,2.6-0.9,3.4s-1.1,1.5-1.5,1.9c-0.2-0.2-0.5-0.3-1-0.5c-0.5-0.2-1.1-0.4-1.8-0.5
				c-0.7-0.2-1.4-0.3-2.2-0.4C378.4,77,377.7,76.9,376.9,76.9z M321.1,89.1c0,1.8,0.2,3.5,0.7,5.1c0.5,1.5,1.3,2.9,2.3,4
				c1,1.1,2.3,2,3.9,2.7c1.6,0.6,3.5,0.9,5.7,0.9c1.7,0,3-0.1,4.1-0.2c1-0.2,1.7-0.3,2-0.5V87.3c0-3-0.8-5.5-2.3-7.4
				c-1.5-2-3.8-3-6.8-3c-3,0-5.4,1.1-7.1,3.3S321.1,85.4,321.1,89.1z M350.8,109.1c-0.3,0.1-0.9,0.1-1.8,0.3c-0.9,0.1-2,0.2-3.4,0.4
				c-1.4,0.1-2.9,0.2-4.6,0.3c-1.7,0.1-3.5,0.2-5.4,0.2c-8.6,0-15-2-19.3-5.9c-4.3-3.9-6.4-9.4-6.4-16.4c0-3.2,0.5-6.1,1.5-8.5
				c1-2.5,2.3-4.5,4-6.2c1.7-1.7,3.7-2.9,5.9-3.8c2.2-0.9,4.6-1.3,7.1-1.3c1.8,0,3.4,0.2,4.8,0.7c1.4,0.4,2.6,1,3.6,1.6
				c1,0.6,1.7,1.2,2.2,1.7c0.5,0.5,0.8,0.9,0.9,1V56.1c0-1.8,0.5-3,1.6-3.7c1-0.7,2.4-1,4.2-1c1.2,0,2.3,0.1,3.3,0.4
				c1,0.3,1.7,0.4,1.9,0.5V109.1z M293.5,109.1V86.6c0-6.5-3-9.7-9-9.7c-2.2,0-3.9,0.2-5.1,0.5c-1.2,0.4-2.1,0.7-2.6,0.9v30.7h-11
				V71.6c0.2-0.1,0.8-0.4,1.9-0.8c1-0.4,2.4-0.8,4-1.3c1.6-0.4,3.6-0.8,5.8-1.2c2.2-0.3,4.6-0.5,7.2-0.5c2.9,0,5.6,0.4,8,1.1
				c2.4,0.7,4.5,1.8,6.2,3.2c1.7,1.4,3.1,3.1,4,5.2c0.9,2.1,1.4,4.4,1.4,7.1v24.7H293.5z M247.6,91.6c-0.2-0.1-0.5-0.1-0.9-0.2
				c-0.5-0.1-1-0.1-1.7-0.2c-0.7-0.1-1.4-0.1-2.2-0.1c-0.8,0-1.6,0-2.5,0c-1.9,0-3.5,0.2-4.7,0.5c-1.2,0.3-2.1,0.7-2.8,1.3
				c-0.7,0.5-1.1,1.2-1.3,2c-0.2,0.8-0.4,1.6-0.4,2.4c0,0.7,0.1,1.4,0.3,2.1c0.2,0.7,0.6,1.3,1.3,1.8c0.7,0.5,1.6,1,2.7,1.3
				c1.2,0.3,2.7,0.5,4.6,0.5c2,0,3.6-0.1,4.9-0.3c1.3-0.2,2.2-0.3,2.7-0.4V91.6z M258.4,108.8c-0.2,0.1-0.7,0.2-1.7,0.3
				c-1,0.2-2.3,0.3-4,0.5c-1.6,0.2-3.6,0.3-5.8,0.4c-2.2,0.1-4.7,0.2-7.4,0.2c-3.9,0-7-0.3-9.5-1c-2.5-0.7-4.5-1.6-5.9-2.7
				c-1.5-1.1-2.5-2.5-3-4c-0.5-1.5-0.8-3.2-0.8-5.1c0-2.2,0.3-4.2,1-5.9c0.7-1.7,1.8-3,3.3-4.1c1.5-1.1,3.5-1.9,5.8-2.4
				c2.4-0.5,5.3-0.8,8.7-0.8c2.3,0,4.3,0.1,5.9,0.2c1.6,0.1,2.5,0.2,2.7,0.3v-1.3c0-2.5-0.8-4.3-2.5-5.6c-1.7-1.3-4.3-2-7.8-2
				c-1.6,0-2.9,0.1-4.2,0.4c-1.2,0.3-2.2,0.6-3.1,1c-0.9,0.4-1.6,0.8-2.2,1.2c-0.6,0.4-1.1,0.7-1.4,0.9c-0.7-0.4-1.4-1.1-2-2
				c-0.6-0.9-0.9-1.9-0.9-3.1c0-1.1,0.4-2.1,1.1-2.9c0.7-0.8,1.7-1.5,2.9-2c1.2-0.5,2.6-0.8,4.2-1.1c1.6-0.2,3.2-0.3,4.9-0.3
				c3.2,0,6.1,0.3,8.7,0.8c2.6,0.5,4.9,1.5,6.8,2.8c1.9,1.3,3.4,3.1,4.4,5.3c1,2.2,1.6,5,1.6,8.3V108.8z M218.1,72.3
				c-0.1,0.1-0.5,0.6-1.4,1.6c-0.9,1-2,2.2-3.3,3.8c-1.4,1.6-2.9,3.4-4.7,5.4c-1.7,2-3.5,4.1-5.3,6.3c1.7,2,3.5,4,5.3,6.1
				c1.8,2.1,3.5,4.1,5,5.9c1.5,1.9,2.9,3.5,4,4.9c1.1,1.4,1.9,2.3,2.3,2.9h-13.3c-0.2-0.3-0.7-0.9-1.3-1.7c-0.7-0.8-1.5-1.8-2.4-2.9
				c-0.9-1.1-1.9-2.3-3-3.6c-1.1-1.3-2.1-2.5-3.1-3.7c-1.9,2.3-3.6,4.5-5.2,6.6c-1.6,2.1-2.9,3.9-3.9,5.2h-12.6
				c0.6-0.8,1.5-1.9,2.6-3.3c1.1-1.4,2.4-2.9,3.8-4.5c1.4-1.7,2.9-3.5,4.4-5.4c1.6-1.9,3.1-3.8,4.7-5.7c-1.2-1.3-2.4-2.6-3.5-3.8
				c-1.1-1.2-2.2-2.3-3.1-3.3c-0.9-1-1.7-1.8-2.4-2.4c-0.7-0.7-1.1-1.1-1.3-1.4c-0.6-0.7-1.3-1.6-1.9-2.5c-0.6-0.9-0.9-1.9-0.9-3
				c0-1.3,0.4-2.4,1.3-3.3c0.9-0.9,2.1-1.4,3.7-1.4c1.5,0,2.6,0.1,3.3,0.4c0.7,0.2,1.2,0.4,1.5,0.6c0.6,0.7,1.8,2.2,3.6,4.4
				c1.8,2.2,3.9,4.7,6.4,7.6c1.8-2.2,3.4-4.2,4.7-6c1.3-1.7,2.2-2.8,2.6-3.3c0.8-0.9,1.7-1.8,2.7-2.5c0.9-0.8,2.3-1.1,4.2-1.1
				c1.9,0,3.5,0.4,4.6,1.2C217.1,71.2,217.8,71.8,218.1,72.3z M165.1,82.3c0-0.7-0.1-1.5-0.4-2.3c-0.3-0.8-0.7-1.6-1.4-2.3
				c-0.6-0.7-1.5-1.2-2.5-1.7c-1-0.4-2.3-0.7-3.8-0.7c-1.7,0-3.1,0.4-4.4,1.1c-1.3,0.7-2.3,1.6-3.1,2.7c-0.8,1.1-1.5,2.3-1.9,3.6
				c-0.4,1.3-0.6,2.6-0.6,3.8h14c1.7,0,2.8-0.4,3.4-1.1C164.8,84.8,165.1,83.7,165.1,82.3z M175.4,83.3c0,1.6-0.2,3.1-0.7,4.4
				c-0.4,1.3-1.1,2.4-2.1,3.3c-1,0.9-2.2,1.6-3.8,2.1c-1.6,0.5-3.6,0.7-5.9,0.7h-15.7c0.5,2.1,1.7,4,3.8,5.4c2,1.5,4.7,2.2,8.1,2.2
				c3.3,0,5.9-0.2,7.7-0.7c1.8-0.5,2.9-0.8,3.3-1.1l3,7.8c-0.1,0.1-0.5,0.3-1.3,0.6c-0.8,0.3-1.8,0.6-3.2,1
				c-1.3,0.3-2.9,0.7-4.7,0.9c-1.8,0.3-3.9,0.4-6.1,0.4c-3.1,0-6-0.4-8.7-1.3c-2.6-0.8-4.9-2.1-6.9-3.8c-2-1.7-3.5-3.9-4.6-6.5
				c-1.1-2.6-1.6-5.7-1.6-9.2c0-3.3,0.5-6.3,1.5-8.9c1-2.7,2.5-4.9,4.3-6.9c1.9-1.9,4.1-3.4,6.7-4.4c2.6-1,5.5-1.6,8.7-1.6
				c3,0,5.6,0.4,7.9,1.2c2.3,0.8,4.2,1.9,5.7,3.3c1.5,1.4,2.7,3.1,3.5,4.9C175,79.2,175.4,81.2,175.4,83.3z M119,56.1
				c0-1.8,0.5-3,1.6-3.7c1-0.7,2.4-1,4.2-1c1.2,0,2.3,0.1,3.3,0.4c1,0.3,1.7,0.4,1.9,0.5v56.8h-11V56.1z M86.9,65.8
				c-0.3,0.5-0.7,1.5-1.3,3C85,70.2,84.3,72,83.5,74c-0.8,2-1.7,4.3-2.7,6.7c-1,2.4-2,4.8-2.9,7.2h17.9c-0.9-2.4-1.9-4.8-2.9-7.2
				c-1-2.4-1.9-4.6-2.7-6.7c-0.8-2-1.6-3.7-2.2-5.2C87.5,67.4,87.1,66.4,86.9,65.8z M58.1,109.1c1.1-3.1,2.4-6.3,3.7-9.6
				c1.3-3.3,2.7-6.5,4-9.7c1.3-3.2,2.6-6.3,3.9-9.4c1.3-3,2.5-5.8,3.6-8.3c1.1-2.5,2.1-4.8,2.9-6.7c0.9-1.9,1.6-3.4,2.1-4.5
				c1.1-2.5,2.4-4.1,3.8-5c1.4-0.9,3.1-1.3,5.1-1.3c2,0,3.6,0.3,4.7,0.9c1.1,0.6,1.8,1.1,2.2,1.5c0.9,1.6,2.1,3.8,3.4,6.5
				c1.3,2.7,2.7,5.8,4.1,9.1c1.4,3.3,2.9,6.8,4.3,10.3c1.5,3.6,2.8,7,4.2,10.4c1.3,3.3,2.5,6.4,3.6,9.2c1.1,2.8,1.9,5,2.5,6.7h-12.1
				c-0.4-1.1-1-2.7-1.8-4.6c-0.8-1.9-1.7-4.2-2.7-6.9H74.1c-1,2.7-1.9,4.9-2.7,6.8c-0.7,1.9-1.3,3.4-1.8,4.6H58.1z"/>
		</g>
	</g>
</g>
</svg>
